<svg width="30" height="30" viewBox="0 0 30 30" fill="none" xmlns="http://www.w3.org/2000/svg">
<path d="M30 15C30 17.9667 29.1203 20.8668 27.472 23.3336C25.8238 25.8003 23.4811 27.7229 20.7403 28.8582C17.9994 29.9935 14.9834 30.2906 12.0736 29.7118C9.16393 29.133 6.49119 27.7044 4.3934 25.6066C2.29561 23.5088 0.866999 20.8361 0.288221 17.9264C-0.290558 15.0166 0.00649254 12.0006 1.14181 9.25975C2.27712 6.51886 4.19971 4.17618 6.66645 2.52796C9.13318 0.879735 12.0333 -3.53778e-08 15 0L15 9.3C13.8726 9.3 12.7706 9.6343 11.8332 10.2606C10.8959 10.8869 10.1653 11.7772 9.73389 12.8187C9.30247 13.8602 9.18959 15.0063 9.40952 16.112C9.62946 17.2177 10.1723 18.2333 10.9695 19.0305C11.7667 19.8277 12.7823 20.3705 13.888 20.5905C14.9937 20.8104 16.1398 20.6975 17.1813 20.2661C18.2228 19.8347 19.1131 19.1041 19.7394 18.1668C20.3657 17.2294 20.7 16.1274 20.7 15H30Z" fill="#00BCD4"/>
<path d="M15 0C16.9698 2.349e-08 18.9204 0.387987 20.7403 1.14181C22.5601 1.89563 24.2137 3.00052 25.6066 4.3934C26.9995 5.78628 28.1044 7.43987 28.8582 9.25975C29.612 11.0796 30 13.0302 30 15L20.7 15C20.7 14.2515 20.5526 13.5103 20.2661 12.8187C19.9797 12.1271 19.5598 11.4988 19.0305 10.9695C18.5012 10.4402 17.8729 10.0203 17.1813 9.73389C16.4897 9.44744 15.7485 9.3 15 9.3L15 0Z" fill="#448AFF"/>
<path d="M30 15C30 17.2922 29.4747 19.554 28.4643 21.6115C27.454 23.6691 25.9855 25.4677 24.1717 26.8693L18.4852 19.5103C19.1745 18.9777 19.7325 18.2942 20.1164 17.5124C20.5004 16.7305 20.7 15.871 20.7 15L30 15Z" fill="#3F51B5"/>
</svg>
