<svg width="171" height="30" viewBox="0 0 171 30" fill="none" xmlns="http://www.w3.org/2000/svg">
<path d="M54.1705 8.90909H50.6165V15.7614H50.5142L45.8608 8.90909H42.8438V22H46.3977V15.1222H46.4744L51.2045 22H54.1705V8.90909ZM55.8516 22H65.2607V19.1364H59.4055V16.8864H64.8004V14.0227H59.4055V11.7727H65.2862V8.90909H55.8516V22ZM70.8585 8.90909H66.8699L70.7562 15.4545L66.742 22H70.7818L73.0062 18.1136H73.1085L75.3329 22H79.3983L75.3329 15.4545L79.2449 8.90909H75.2818L73.1085 12.7188H73.0062L70.8585 8.90909ZM80.4194 11.7727H84.3569V22H87.8597V11.7727H91.7972V8.90909H80.4194V11.7727ZM93.1348 22H96.6887V17.679H97.916L100.217 22H104.078L101.419 17.1165C102.812 16.4453 103.643 15.1733 103.643 13.358C103.643 10.571 101.694 8.90909 98.7853 8.90909H93.1348V22ZM96.6887 14.9176V11.7472H97.9416C99.188 11.7472 99.9359 12.233 99.9359 13.358C99.9359 14.4766 99.188 14.9176 97.9416 14.9176H96.6887ZM117.84 15.4545C117.84 11.0824 115.028 8.73011 111.474 8.73011C107.894 8.73011 105.107 11.0824 105.107 15.4545C105.107 19.8011 107.894 22.179 111.474 22.179C115.028 22.179 117.84 19.8267 117.84 15.4545ZM114.184 15.4545C114.184 17.8068 113.238 19.0852 111.474 19.0852C109.709 19.0852 108.763 17.8068 108.763 15.4545C108.763 13.1023 109.709 11.8239 111.474 11.8239C113.238 11.8239 114.184 13.1023 114.184 15.4545ZM126.471 22L127.225 19.4943H131.546L132.3 22H136.136L131.815 8.90909H126.957L122.636 22H126.471ZM128.031 16.8352L129.335 12.5142H129.437L130.741 16.8352H128.031ZM137.396 22H143.558C146.403 22 148.161 20.4467 148.161 18.2926C148.161 16.4453 146.799 15.2372 145.118 15.1733V15.0455C146.633 14.745 147.649 13.6264 147.649 12.1818C147.649 10.1875 146.064 8.90909 143.073 8.90909H137.396V22ZM140.95 19.1619V16.4006H142.664C143.744 16.4006 144.402 16.9119 144.402 17.8324C144.402 18.7081 143.808 19.1619 142.612 19.1619H140.95ZM140.95 14.2017V11.696H142.459C143.341 11.696 143.993 12.1435 143.993 12.9489C143.993 13.7543 143.341 14.2017 142.408 14.2017H140.95ZM149.42 22H158.267V19.1364H152.974V8.90909H149.42V22ZM159.703 22H169.112V19.1364H163.257V16.8864H168.652V14.0227H163.257V11.7727H169.138V8.90909H159.703V22Z" fill="#DAD8F1"/>
<path d="M30 15C30 17.9667 29.1203 20.8668 27.472 23.3336C25.8238 25.8003 23.4811 27.7229 20.7403 28.8582C17.9994 29.9935 14.9834 30.2906 12.0736 29.7118C9.16393 29.133 6.49119 27.7044 4.3934 25.6066C2.29561 23.5088 0.866999 20.8361 0.288221 17.9264C-0.290558 15.0166 0.00649254 12.0006 1.14181 9.25975C2.27712 6.51886 4.19971 4.17618 6.66645 2.52796C9.13318 0.879735 12.0333 -3.53778e-08 15 0V9.3C13.8726 9.3 12.7706 9.6343 11.8333 10.2606C10.8959 10.8869 10.1653 11.7772 9.73389 12.8187C9.30247 13.8602 9.18959 15.0063 9.40952 16.112C9.62946 17.2177 10.1723 18.2333 10.9695 19.0305C11.7667 19.8277 12.7823 20.3705 13.888 20.5905C14.9937 20.8104 16.1398 20.6975 17.1813 20.2661C18.2228 19.8347 19.1131 19.1041 19.7394 18.1667C20.3657 17.2294 20.7 16.1274 20.7 15H30Z" fill="#00BCD4"/>
<path d="M15 0C16.9698 2.349e-08 18.9204 0.387987 20.7403 1.14181C22.5601 1.89563 24.2137 3.00052 25.6066 4.3934C26.9995 5.78628 28.1044 7.43987 28.8582 9.25975C29.612 11.0796 30 13.0302 30 15L20.7 15C20.7 14.2515 20.5526 13.5103 20.2661 12.8187C19.9797 12.1271 19.5598 11.4988 19.0305 10.9695C18.5012 10.4402 17.8729 10.0203 17.1813 9.73389C16.4897 9.44744 15.7485 9.3 15 9.3V0Z" fill="#448AFF"/>
<path d="M30 15C30 17.2922 29.4747 19.554 28.4643 21.6115C27.454 23.6691 25.9855 25.4677 24.1717 26.8693L18.4853 19.5103C19.1745 18.9777 19.7325 18.2942 20.1164 17.5124C20.5004 16.7305 20.7 15.871 20.7 15H30Z" fill="#3F51B5"/>
</svg>
