<svg width="171" height="30" viewBox="0 0 171 30" fill="none" xmlns="http://www.w3.org/2000/svg">
<path d="M54.8993 8.90909H51.3453V15.7614H51.243L46.5896 8.90909H43.5726V22H47.1265V15.1222H47.2033L51.9334 22H54.8993V8.90909ZM56.5804 22H65.9895V19.1364H60.1344V16.8864H65.5292V14.0227H60.1344V11.7727H66.015V8.90909H56.5804V22ZM71.5873 8.90909H67.5987L71.485 15.4545L67.4708 22H71.5106L73.735 18.1136H73.8373L76.0617 22H80.1271L76.0617 15.4545L79.9737 8.90909H76.0106L73.8373 12.7188H73.735L71.5873 8.90909ZM81.1482 11.7727H85.0857V22H88.5886V11.7727H92.5261V8.90909H81.1482V11.7727ZM93.8636 22H97.4176V17.679H98.6448L100.946 22H104.807L102.148 17.1165C103.541 16.4453 104.372 15.1733 104.372 13.358C104.372 10.571 102.423 8.90909 99.5142 8.90909H93.8636V22ZM97.4176 14.9176V11.7472H98.6704C99.9169 11.7472 100.665 12.233 100.665 13.358C100.665 14.4766 99.9169 14.9176 98.6704 14.9176H97.4176ZM118.569 15.4545C118.569 11.0824 115.756 8.73011 112.202 8.73011C108.623 8.73011 105.836 11.0824 105.836 15.4545C105.836 19.8011 108.623 22.179 112.202 22.179C115.756 22.179 118.569 19.8267 118.569 15.4545ZM114.913 15.4545C114.913 17.8068 113.967 19.0852 112.202 19.0852C110.438 19.0852 109.492 17.8068 109.492 15.4545C109.492 13.1023 110.438 11.8239 112.202 11.8239C113.967 11.8239 114.913 13.1023 114.913 15.4545ZM127.2 22L127.954 19.4943H132.275L133.029 22H136.864L132.543 8.90909H127.685L123.364 22H127.2ZM128.759 16.8352L130.063 12.5142H130.166L131.47 16.8352H128.759ZM138.125 22H144.287C147.132 22 148.89 20.4467 148.89 18.2926C148.89 16.4453 147.528 15.2372 145.847 15.1733V15.0455C147.362 14.745 148.378 13.6264 148.378 12.1818C148.378 10.1875 146.793 8.90909 143.801 8.90909H138.125V22ZM141.679 19.1619V16.4006H143.392C144.473 16.4006 145.131 16.9119 145.131 17.8324C145.131 18.7081 144.537 19.1619 143.341 19.1619H141.679ZM141.679 14.2017V11.696H143.188C144.07 11.696 144.722 12.1435 144.722 12.9489C144.722 13.7543 144.07 14.2017 143.137 14.2017H141.679ZM150.149 22H158.995V19.1364H153.703V8.90909H150.149V22ZM160.432 22H169.841V19.1364H163.986V16.8864H169.381V14.0227H163.986V11.7727H169.867V8.90909H160.432V22Z" fill="#2F2F2F"/>
<path d="M30.7966 15C30.7966 17.9667 29.9219 20.8668 28.283 23.3336C26.6441 25.8003 24.3146 27.7229 21.5892 28.8582C18.8638 29.9935 15.8648 30.2906 12.9716 29.7118C10.0783 29.133 7.42064 27.7044 5.3347 25.6066C3.24877 23.5088 1.82823 20.8361 1.25272 17.9264C0.67721 15.0166 0.972581 12.0006 2.10148 9.25975C3.23038 6.51886 5.14211 4.17618 7.59491 2.52796C10.0477 0.879735 12.9314 -3.53778e-08 15.8814 0L15.8814 9.3C14.7604 9.3 13.6646 9.6343 12.7325 10.2606C11.8005 10.8869 11.074 11.7772 10.645 12.8187C10.216 13.8602 10.1038 15.0063 10.3225 16.112C10.5412 17.2177 11.081 18.2333 11.8736 19.0305C12.6663 19.8277 13.6762 20.3705 14.7756 20.5905C15.8751 20.8104 17.0147 20.6975 18.0504 20.2661C19.086 19.8347 19.9712 19.1041 20.594 18.1668C21.2168 17.2294 21.5492 16.1274 21.5492 15H30.7966Z" fill="#00BCD4"/>
<path d="M15.8814 0C17.8401 2.349e-08 19.7796 0.387987 21.5892 1.14181C23.3988 1.89563 25.043 3.00052 26.4281 4.3934C27.8131 5.78628 28.9117 7.43987 29.6613 9.25975C30.4108 11.0796 30.7966 13.0302 30.7966 15L21.5492 15C21.5492 14.2515 21.4026 13.5103 21.1177 12.8187C20.8329 12.1271 20.4154 11.4988 19.8891 10.9695C19.3628 10.4402 18.738 10.0203 18.0504 9.73389C17.3627 9.44744 16.6257 9.3 15.8814 9.3L15.8814 0Z" fill="#448AFF"/>
<path d="M30.7966 15C30.7966 17.2922 30.2743 19.554 29.2696 21.6115C28.265 23.6691 26.8048 25.4677 25.0013 26.8693L19.3469 19.5103C20.0323 18.9777 20.5872 18.2942 20.9689 17.5124C21.3507 16.7305 21.5492 15.871 21.5492 15L30.7966 15Z" fill="#3F51B5"/>
</svg>
